<svg width="42" height="42" viewBox="0 0 42 42" fill="none" xmlns="http://www.w3.org/2000/svg">
<path d="M30.625 11.375H30.6425M12.25 3.5H29.75C34.5825 3.5 38.5 7.41751 38.5 12.25V29.75C38.5 34.5825 34.5825 38.5 29.75 38.5H12.25C7.41751 38.5 3.5 34.5825 3.5 29.75V12.25C3.5 7.41751 7.41751 3.5 12.25 3.5ZM28 19.8975C28.216 21.3539 27.9672 22.8414 27.2891 24.1483C26.611 25.4552 25.538 26.515 24.2228 27.1769C22.9077 27.8389 21.4173 28.0693 19.9636 27.8354C18.51 27.6015 17.1671 26.9151 16.126 25.874C15.0849 24.8329 14.3985 23.49 14.1646 22.0364C13.9307 20.5827 14.1611 19.0923 14.8231 17.7772C15.485 16.462 16.5448 15.389 17.8517 14.7109C19.1586 14.0328 20.6461 13.784 22.1025 14C23.5881 14.2203 24.9635 14.9126 26.0255 15.9745C27.0874 17.0365 27.7797 18.4119 28 19.8975Z" stroke="white" stroke-width="4" stroke-linecap="round" stroke-linejoin="round"/>
</svg>
