<svg width="22" height="22" viewBox="0 0 22 22" fill="none" xmlns="http://www.w3.org/2000/svg">
<circle cx="11" cy="11" r="11" fill="#D9D9D9"/>
<g clip-path="url(#clip0_30_28)">
<path d="M9.33333 7.25H8.08333C7.86232 7.25 7.65036 7.3378 7.49408 7.49408C7.3378 7.65036 7.25 7.86232 7.25 8.08333V9.33333M14.75 9.33333V8.08333C14.75 7.86232 14.6622 7.65036 14.5059 7.49408C14.3496 7.3378 14.1377 7.25 13.9167 7.25H12.6667M12.6667 14.75H13.9167C14.1377 14.75 14.3496 14.6622 14.5059 14.5059C14.6622 14.3496 14.75 14.1377 14.75 13.9167V12.6667M7.25 12.6667V13.9167C7.25 14.1377 7.3378 14.3496 7.49408 14.5059C7.65036 14.6622 7.86232 14.75 8.08333 14.75H9.33333" stroke="#1E1E1E" stroke-width="2" stroke-linecap="round" stroke-linejoin="round"/>
</g>
<defs>
<clipPath id="clip0_30_28">
<rect width="10" height="10" fill="white" transform="translate(6 6)"/>
</clipPath>
</defs>
</svg>
