<svg width="79" height="79" viewBox="0 0 79 79" fill="none" xmlns="http://www.w3.org/2000/svg">
<circle cx="39.5" cy="39.5" r="39.5" fill="#D9D9D9"/>
<path d="M31 21H25C23.9391 21 22.9217 21.4214 22.1716 22.1716C21.4214 22.9217 21 23.9391 21 25V31M57 31V25C57 23.9391 56.5786 22.9217 55.8284 22.1716C55.0783 21.4214 54.0609 21 53 21H47M47 57H53C54.0609 57 55.0783 56.5786 55.8284 55.8284C56.5786 55.0783 57 54.0609 57 53V47M21 47V53C21 54.0609 21.4214 55.0783 22.1716 55.8284C22.9217 56.5786 23.9391 57 25 57H31" stroke="#1E1E1E" stroke-width="4" stroke-linecap="round" stroke-linejoin="round"/>
</svg>
