<svg width="49" height="49" viewBox="0 0 49 49" fill="none" xmlns="http://www.w3.org/2000/svg">
<circle cx="24.5" cy="24.5" r="24.5" fill="#D9D9D9"/>
<path d="M18.6667 13V17C18.6667 17.7072 18.3857 18.3855 17.8856 18.8856C17.3855 19.3857 16.7072 19.6667 16 19.6667H12M36 19.6667H32C31.2928 19.6667 30.6145 19.3857 30.1144 18.8856C29.6143 18.3855 29.3333 17.7072 29.3333 17V13M29.3333 37V33C29.3333 32.2928 29.6143 31.6145 30.1144 31.1144C30.6145 30.6143 31.2928 30.3333 32 30.3333H36M12 30.3333H16C16.7072 30.3333 17.3855 30.6143 17.8856 31.1144C18.3857 31.6145 18.6667 32.2928 18.6667 33V37" stroke="#1E1E1E" stroke-width="3.5" stroke-linecap="round" stroke-linejoin="round"/>
</svg>
